<svg width="500" height="500" viewBox="0 0 500 500" fill="none" xmlns="http://www.w3.org/2000/svg">
    <path
            d="M149.917 249.517C149.917 303.167 193.571 346.807 247.206 346.807C300.841 346.807 344.529 303.167 344.529 249.517C344.529 195.866 300.875 152.261 247.206 152.261C193.537 152.261 149.917 195.9 149.917 249.517ZM192.327 249.517C192.327 219.248 216.961 194.657 247.206 194.657C277.485 194.657 302.085 219.248 302.085 249.517C302.085 279.785 277.451 304.41 247.206 304.41C216.961 304.41 192.327 279.785 192.327 249.517Z"
            fill="white"/>
    <path
            d="M0 249.517C0 259.797 8.3343 268.128 18.6177 268.128H76.5209C85.8298 354.097 158.822 421.218 247.24 421.218C271.873 421.218 295.263 415.911 316.434 406.538L345.403 456.661C350.545 465.563 361.937 468.62 370.843 463.48C379.748 458.34 382.806 446.952 377.665 438.049L348.629 387.792C391.208 356.515 419.034 306.224 419.034 249.483C419.034 192.742 391.241 142.451 348.629 111.175L377.698 60.8499C382.84 51.9473 379.782 40.5588 370.876 35.4188C361.971 30.2789 350.578 33.336 345.436 42.2385L316.434 92.4288C295.229 83.0559 271.873 77.7479 247.24 77.7479C158.822 77.7479 85.8298 144.903 76.5209 230.838H18.6177C8.3343 230.838 0 239.17 0 249.45V249.517ZM117.89 249.517C117.89 178.229 175.928 120.245 247.24 120.245C318.552 120.245 376.589 178.263 376.589 249.517C376.589 320.771 318.552 378.822 247.24 378.822C175.928 378.822 117.89 320.804 117.89 249.517Z"
            fill="white"/>
</svg>
